{
    "asset" : {
        "generator" : "Khronos glTF Blender I/O v1.7.33",
        "version" : "2.0"
    },
    "scene" : 1,
    "scenes" : [
        {
            "name" : "Scene",
            "nodes" : [
                8
            ]
        },
        {
            "name" : "Scene.001",
            "nodes" : [
                13
            ]
        }
    ],
    "nodes" : [
        {
            "name" : "Bone.003",
            "rotation" : [
                0,
                -1.862645371275562e-09,
                -9.31322685637781e-10,
                1
            ],
            "scale" : [
                0.9999999403953552,
                0.9999999403953552,
                0.9999999403953552
            ],
            "translation" : [
                3.725290298461914e-09,
                0.32734328508377075,
                0
            ]
        },
        {
            "children" : [
                0
            ],
            "name" : "Bone.002",
            "rotation" : [
                0.41986146569252014,
                -0.05691501498222351,
                0.0015420452691614628,
                0.9058005809783936
            ],
            "translation" : [
                0,
                0.35329729318618774,
                0
            ]
        },
        {
            "children" : [
                1
            ],
            "name" : "Bone.001",
            "rotation" : [
                0.1967305690050125,
                0,
                0,
                0.980457603931427
            ],
            "translation" : [
                0,
                0.5143809914588928,
                0
            ]
        },
        {
            "children" : [
                2
            ],
            "name" : "Bone"
        },
        {
            "mesh" : 0,
            "name" : "Body",
            "skin" : 0
        },
        {
            "mesh" : 1,
            "name" : "Eyes",
            "skin" : 0
        },
        {
            "mesh" : 2,
            "name" : "Feathers",
            "skin" : 0
        },
        {
            "mesh" : 3,
            "name" : "Head",
            "skin" : 0
        },
        {
            "children" : [
                4,
                5,
                6,
                7,
                3
            ],
            "name" : "Ch_Swizzle"
        },
        {
            "mesh" : 0,
            "name" : "Body",
            "skin" : 0
        },
        {
            "mesh" : 1,
            "name" : "Eyes",
            "skin" : 0
        },
        {
            "mesh" : 2,
            "name" : "Feathers",
            "skin" : 0
        },
        {
            "mesh" : 3,
            "name" : "Head",
            "skin" : 0
        },
        {
            "children" : [
                9,
                10,
                11,
                12,
                3
            ],
            "name" : "Ch_Swizzle"
        }
    ],
    "materials" : [
        {
            "doubleSided" : true,
            "name" : "birdterial",
            "pbrMetallicRoughness" : {
                "baseColorTexture" : {
                    "index" : 0
                },
                "metallicFactor" : 0,
                "roughnessFactor" : 0
            }
        },
        {
            "alphaMode" : "BLEND",
            "doubleSided" : true,
            "name" : "Material.001",
            "pbrMetallicRoughness" : {
                "baseColorFactor" : [
                    0.23301267623901367,
                    0.23301267623901367,
                    0.23301267623901367,
                    1
                ],
                "metallicFactor" : 0
            }
        }
    ],
    "meshes" : [
        {
            "name" : "Body",
            "primitives" : [
                {
                    "attributes" : {
                        "POSITION" : 0,
                        "NORMAL" : 1,
                        "TEXCOORD_0" : 2,
                        "JOINTS_0" : 3,
                        "WEIGHTS_0" : 4
                    },
                    "indices" : 5,
                    "material" : 0
                }
            ]
        },
        {
            "name" : "eyes",
            "primitives" : [
                {
                    "attributes" : {
                        "POSITION" : 7,
                        "NORMAL" : 8,
                        "TEXCOORD_0" : 9,
                        "JOINTS_0" : 10,
                        "WEIGHTS_0" : 11
                    },
                    "indices" : 12,
                    "material" : 1
                }
            ]
        },
        {
            "name" : "Feathers",
            "primitives" : [
                {
                    "attributes" : {
                        "POSITION" : 13,
                        "NORMAL" : 14,
                        "TEXCOORD_0" : 15,
                        "JOINTS_0" : 16,
                        "WEIGHTS_0" : 17
                    },
                    "indices" : 18,
                    "material" : 0
                }
            ]
        },
        {
            "name" : "Head",
            "primitives" : [
                {
                    "attributes" : {
                        "POSITION" : 19,
                        "NORMAL" : 20,
                        "TEXCOORD_0" : 21,
                        "JOINTS_0" : 22,
                        "WEIGHTS_0" : 23
                    },
                    "indices" : 24,
                    "material" : 0
                }
            ]
        }
    ],
    "textures" : [
        {
            "sampler" : 0,
            "source" : 0
        }
    ],
    "images" : [
        {
            "mimeType" : "image/png",
            "name" : "birdbasecolor",
            "uri" : "birdbasecolor.png"
        }
    ],
    "skins" : [
        {
            "inverseBindMatrices" : 6,
            "joints" : [
                3,
                2,
                1,
                0
            ],
            "name" : "Ch_Swizzle"
        }
    ],
    "accessors" : [
        {
            "bufferView" : 0,
            "componentType" : 5126,
            "count" : 979,
            "max" : [
                0.44794413447380066,
                1.2322262525558472,
                0.17336532473564148
            ],
            "min" : [
                -0.44794413447380066,
                0.02292676456272602,
                -0.8142236471176147
            ],
            "type" : "VEC3"
        },
        {
            "bufferView" : 1,
            "componentType" : 5126,
            "count" : 979,
            "type" : "VEC3"
        },
        {
            "bufferView" : 2,
            "componentType" : 5126,
            "count" : 979,
            "type" : "VEC2"
        },
        {
            "bufferView" : 3,
            "componentType" : 5121,
            "count" : 979,
            "type" : "VEC4"
        },
        {
            "bufferView" : 4,
            "componentType" : 5126,
            "count" : 979,
            "type" : "VEC4"
        },
        {
            "bufferView" : 5,
            "componentType" : 5123,
            "count" : 4800,
            "type" : "SCALAR"
        },
        {
            "bufferView" : 6,
            "componentType" : 5126,
            "count" : 4,
            "type" : "MAT4"
        },
        {
            "bufferView" : 7,
            "componentType" : 5126,
            "count" : 8,
            "max" : [
                0.161158487200737,
                1.6123777627944946,
                0.11134004592895508
            ],
            "min" : [
                -0.1617671549320221,
                1.4195791482925415,
                -0.03957735747098923
            ],
            "type" : "VEC3"
        },
        {
            "bufferView" : 8,
            "componentType" : 5126,
            "count" : 8,
            "type" : "VEC3"
        },
        {
            "bufferView" : 9,
            "componentType" : 5126,
            "count" : 8,
            "type" : "VEC2"
        },
        {
            "bufferView" : 10,
            "componentType" : 5121,
            "count" : 8,
            "type" : "VEC4"
        },
        {
            "bufferView" : 11,
            "componentType" : 5126,
            "count" : 8,
            "type" : "VEC4"
        },
        {
            "bufferView" : 12,
            "componentType" : 5123,
            "count" : 12,
            "type" : "SCALAR"
        },
        {
            "bufferView" : 13,
            "componentType" : 5126,
            "count" : 924,
            "max" : [
                0.2312893569469452,
                1.745719313621521,
                0.12263357639312744
            ],
            "min" : [
                -0.2312893569469452,
                0.6390746831893921,
                -0.5469897985458374
            ],
            "type" : "VEC3"
        },
        {
            "bufferView" : 14,
            "componentType" : 5126,
            "count" : 924,
            "type" : "VEC3"
        },
        {
            "bufferView" : 15,
            "componentType" : 5126,
            "count" : 924,
            "type" : "VEC2"
        },
        {
            "bufferView" : 16,
            "componentType" : 5121,
            "count" : 924,
            "type" : "VEC4"
        },
        {
            "bufferView" : 17,
            "componentType" : 5126,
            "count" : 924,
            "type" : "VEC4"
        },
        {
            "bufferView" : 18,
            "componentType" : 5123,
            "count" : 2904,
            "type" : "SCALAR"
        },
        {
            "bufferView" : 19,
            "componentType" : 5126,
            "count" : 415,
            "max" : [
                0.22504685819149017,
                1.955601692199707,
                0.2656879127025604
            ],
            "min" : [
                -0.22504685819149017,
                1.0089774131774902,
                -0.22112849354743958
            ],
            "type" : "VEC3"
        },
        {
            "bufferView" : 20,
            "componentType" : 5126,
            "count" : 415,
            "type" : "VEC3"
        },
        {
            "bufferView" : 21,
            "componentType" : 5126,
            "count" : 415,
            "type" : "VEC2"
        },
        {
            "bufferView" : 22,
            "componentType" : 5121,
            "count" : 415,
            "type" : "VEC4"
        },
        {
            "bufferView" : 23,
            "componentType" : 5126,
            "count" : 415,
            "type" : "VEC4"
        },
        {
            "bufferView" : 24,
            "componentType" : 5123,
            "count" : 1872,
            "type" : "SCALAR"
        }
    ],
    "bufferViews" : [
        {
            "buffer" : 0,
            "byteLength" : 11748,
            "byteOffset" : 0
        },
        {
            "buffer" : 0,
            "byteLength" : 11748,
            "byteOffset" : 11748
        },
        {
            "buffer" : 0,
            "byteLength" : 7832,
            "byteOffset" : 23496
        },
        {
            "buffer" : 0,
            "byteLength" : 3916,
            "byteOffset" : 31328
        },
        {
            "buffer" : 0,
            "byteLength" : 15664,
            "byteOffset" : 35244
        },
        {
            "buffer" : 0,
            "byteLength" : 9600,
            "byteOffset" : 50908
        },
        {
            "buffer" : 0,
            "byteLength" : 256,
            "byteOffset" : 60508
        },
        {
            "buffer" : 0,
            "byteLength" : 96,
            "byteOffset" : 60764
        },
        {
            "buffer" : 0,
            "byteLength" : 96,
            "byteOffset" : 60860
        },
        {
            "buffer" : 0,
            "byteLength" : 64,
            "byteOffset" : 60956
        },
        {
            "buffer" : 0,
            "byteLength" : 32,
            "byteOffset" : 61020
        },
        {
            "buffer" : 0,
            "byteLength" : 128,
            "byteOffset" : 61052
        },
        {
            "buffer" : 0,
            "byteLength" : 24,
            "byteOffset" : 61180
        },
        {
            "buffer" : 0,
            "byteLength" : 11088,
            "byteOffset" : 61204
        },
        {
            "buffer" : 0,
            "byteLength" : 11088,
            "byteOffset" : 72292
        },
        {
            "buffer" : 0,
            "byteLength" : 7392,
            "byteOffset" : 83380
        },
        {
            "buffer" : 0,
            "byteLength" : 3696,
            "byteOffset" : 90772
        },
        {
            "buffer" : 0,
            "byteLength" : 14784,
            "byteOffset" : 94468
        },
        {
            "buffer" : 0,
            "byteLength" : 5808,
            "byteOffset" : 109252
        },
        {
            "buffer" : 0,
            "byteLength" : 4980,
            "byteOffset" : 115060
        },
        {
            "buffer" : 0,
            "byteLength" : 4980,
            "byteOffset" : 120040
        },
        {
            "buffer" : 0,
            "byteLength" : 3320,
            "byteOffset" : 125020
        },
        {
            "buffer" : 0,
            "byteLength" : 1660,
            "byteOffset" : 128340
        },
        {
            "buffer" : 0,
            "byteLength" : 6640,
            "byteOffset" : 130000
        },
        {
            "buffer" : 0,
            "byteLength" : 3744,
            "byteOffset" : 136640
        }
    ],
    "samplers" : [
        {
            "magFilter" : 9729,
            "minFilter" : 9987
        }
    ],
    "buffers" : [
        {
            "byteLength" : 140384,
            "uri" : "salad0.bin"
        }
    ]
}
