{
    "asset" : {
        "generator" : "Khronos glTF Blender I/O v1.7.33",
        "version" : "2.0"
    },
    "scene" : 0,
    "scenes" : [
        {
            "name" : "Scene",
            "nodes" : [
                0,
                1,
                2,
                3
            ]
        },
        {
            "name" : "Scene.001",
            "nodes" : [
                4,
                5,
                6
            ]
        }
    ],
    "nodes" : [
        {
            "mesh" : 0,
            "name" : "Cube.001"
        },
        {
            "mesh" : 1,
            "name" : "Plane"
        },
        {
            "mesh" : 2,
            "name" : "Cube.002"
        },
        {
            "mesh" : 3,
            "name" : "Cube.003"
        },
        {
            "mesh" : 0,
            "name" : "Cube.001"
        },
        {
            "mesh" : 1,
            "name" : "Plane"
        },
        {
            "mesh" : 2,
            "name" : "Cube.002"
        }
    ],
    "materials" : [
        {
            "doubleSided" : true,
            "name" : "birdterial",
            "pbrMetallicRoughness" : {
                "baseColorTexture" : {
                    "index" : 0
                },
                "metallicFactor" : 0,
                "roughnessFactor" : 0
            }
        },
        {
            "alphaMode" : "BLEND",
            "doubleSided" : true,
            "name" : "Material.001",
            "pbrMetallicRoughness" : {
                "baseColorFactor" : [
                    0.23301267623901367,
                    0.23301267623901367,
                    0.23301267623901367,
                    1
                ],
                "metallicFactor" : 0
            }
        }
    ],
    "meshes" : [
        {
            "name" : "body",
            "primitives" : [
                {
                    "attributes" : {
                        "POSITION" : 0,
                        "NORMAL" : 1,
                        "TEXCOORD_0" : 2
                    },
                    "indices" : 3,
                    "material" : 0
                }
            ]
        },
        {
            "name" : "Plane",
            "primitives" : [
                {
                    "attributes" : {
                        "POSITION" : 4,
                        "NORMAL" : 5,
                        "TEXCOORD_0" : 6
                    },
                    "indices" : 7,
                    "material" : 0
                }
            ]
        },
        {
            "name" : "head",
            "primitives" : [
                {
                    "attributes" : {
                        "POSITION" : 8,
                        "NORMAL" : 9,
                        "TEXCOORD_0" : 10
                    },
                    "indices" : 11,
                    "material" : 0
                }
            ]
        },
        {
            "name" : "eyes",
            "primitives" : [
                {
                    "attributes" : {
                        "POSITION" : 12,
                        "NORMAL" : 13,
                        "TEXCOORD_0" : 14
                    },
                    "indices" : 15,
                    "material" : 1
                }
            ]
        }
    ],
    "textures" : [
        {
            "sampler" : 0,
            "source" : 0
        }
    ],
    "images" : [
        {
            "mimeType" : "image/png",
            "name" : "birdbasecolor",
            "uri" : "birdbasecolor.png"
        }
    ],
    "accessors" : [
        {
            "bufferView" : 0,
            "componentType" : 5126,
            "count" : 3496,
            "max" : [
                0.44794413447380066,
                1.2322262525558472,
                0.17336532473564148
            ],
            "min" : [
                -0.44794413447380066,
                0.02292676456272602,
                -0.8142236471176147
            ],
            "type" : "VEC3"
        },
        {
            "bufferView" : 1,
            "componentType" : 5126,
            "count" : 3496,
            "type" : "VEC3"
        },
        {
            "bufferView" : 2,
            "componentType" : 5126,
            "count" : 3496,
            "type" : "VEC2"
        },
        {
            "bufferView" : 3,
            "componentType" : 5123,
            "count" : 4800,
            "type" : "SCALAR"
        },
        {
            "bufferView" : 4,
            "componentType" : 5126,
            "count" : 924,
            "max" : [
                0.2312893569469452,
                1.745719313621521,
                0.12263357639312744
            ],
            "min" : [
                -0.2312893569469452,
                0.6390746831893921,
                -0.5469897985458374
            ],
            "type" : "VEC3"
        },
        {
            "bufferView" : 5,
            "componentType" : 5126,
            "count" : 924,
            "type" : "VEC3"
        },
        {
            "bufferView" : 6,
            "componentType" : 5126,
            "count" : 924,
            "type" : "VEC2"
        },
        {
            "bufferView" : 7,
            "componentType" : 5123,
            "count" : 2904,
            "type" : "SCALAR"
        },
        {
            "bufferView" : 8,
            "componentType" : 5126,
            "count" : 415,
            "max" : [
                0.22504685819149017,
                1.955601692199707,
                0.2656879127025604
            ],
            "min" : [
                -0.22504685819149017,
                1.0089774131774902,
                -0.22112849354743958
            ],
            "type" : "VEC3"
        },
        {
            "bufferView" : 9,
            "componentType" : 5126,
            "count" : 415,
            "type" : "VEC3"
        },
        {
            "bufferView" : 10,
            "componentType" : 5126,
            "count" : 415,
            "type" : "VEC2"
        },
        {
            "bufferView" : 11,
            "componentType" : 5123,
            "count" : 1872,
            "type" : "SCALAR"
        },
        {
            "bufferView" : 12,
            "componentType" : 5126,
            "count" : 8,
            "max" : [
                0.161158487200737,
                1.6123777627944946,
                0.11134004592895508
            ],
            "min" : [
                -0.1617671549320221,
                1.4195791482925415,
                -0.03957735747098923
            ],
            "type" : "VEC3"
        },
        {
            "bufferView" : 13,
            "componentType" : 5126,
            "count" : 8,
            "type" : "VEC3"
        },
        {
            "bufferView" : 14,
            "componentType" : 5126,
            "count" : 8,
            "type" : "VEC2"
        },
        {
            "bufferView" : 15,
            "componentType" : 5123,
            "count" : 12,
            "type" : "SCALAR"
        }
    ],
    "bufferViews" : [
        {
            "buffer" : 0,
            "byteLength" : 41952,
            "byteOffset" : 0
        },
        {
            "buffer" : 0,
            "byteLength" : 41952,
            "byteOffset" : 41952
        },
        {
            "buffer" : 0,
            "byteLength" : 27968,
            "byteOffset" : 83904
        },
        {
            "buffer" : 0,
            "byteLength" : 9600,
            "byteOffset" : 111872
        },
        {
            "buffer" : 0,
            "byteLength" : 11088,
            "byteOffset" : 121472
        },
        {
            "buffer" : 0,
            "byteLength" : 11088,
            "byteOffset" : 132560
        },
        {
            "buffer" : 0,
            "byteLength" : 7392,
            "byteOffset" : 143648
        },
        {
            "buffer" : 0,
            "byteLength" : 5808,
            "byteOffset" : 151040
        },
        {
            "buffer" : 0,
            "byteLength" : 4980,
            "byteOffset" : 156848
        },
        {
            "buffer" : 0,
            "byteLength" : 4980,
            "byteOffset" : 161828
        },
        {
            "buffer" : 0,
            "byteLength" : 3320,
            "byteOffset" : 166808
        },
        {
            "buffer" : 0,
            "byteLength" : 3744,
            "byteOffset" : 170128
        },
        {
            "buffer" : 0,
            "byteLength" : 96,
            "byteOffset" : 173872
        },
        {
            "buffer" : 0,
            "byteLength" : 96,
            "byteOffset" : 173968
        },
        {
            "buffer" : 0,
            "byteLength" : 64,
            "byteOffset" : 174064
        },
        {
            "buffer" : 0,
            "byteLength" : 24,
            "byteOffset" : 174128
        }
    ],
    "samplers" : [
        {
            "magFilter" : 9729,
            "minFilter" : 9987
        }
    ],
    "buffers" : [
        {
            "byteLength" : 174152,
            "uri" : "salad0.bin"
        }
    ]
}
