{
    "asset" : {
        "generator" : "Khronos glTF Blender I/O v1.7.33",
        "version" : "2.0"
    },
    "scene" : 0,
    "scenes" : [
        {
            "name" : "Scene",
            "nodes" : [
                5
            ]
        }
    ],
    "nodes" : [
        {
            "name" : "Bone.003",
            "rotation" : [
                -5.329070518200751e-15,
                1.5418254838108467e-23,
                -1.0587908054146409e-22,
                1
            ],
            "translation" : [
                -6.370396384103071e-22,
                0.5000001192092896,
                1.4210854715202004e-14
            ]
        },
        {
            "children" : [
                0
            ],
            "name" : "Bone.002",
            "rotation" : [
                -5.329070518200751e-15,
                -7.105427357601002e-15,
                -1.0499666704377111e-22,
                1
            ],
            "translation" : [
                -3.1763735522036263e-22,
                0.5000001192092896,
                -2.722444091419882e-36
            ]
        },
        {
            "children" : [
                1
            ],
            "name" : "Bone.001",
            "rotation" : [
                0,
                1.5418280081657434e-23,
                -4.733165431326071e-30,
                1
            ],
            "translation" : [
                -1.0587913102856203e-22,
                0.5000001192092896,
                2.942726775082116e-44
            ]
        },
        {
            "children" : [
                2
            ],
            "name" : "Bone",
            "rotation" : [
                6.339203650895797e-08,
                7.574776361707336e-09,
                5.088690720462098e-16,
                1
            ]
        },
        {
            "mesh" : 0,
            "name" : "Cube",
            "skin" : 0
        },
        {
            "children" : [
                4,
                3
            ],
            "name" : "Armature"
        }
    ],
    "materials" : [
        {
            "doubleSided" : true,
            "name" : "Material.002",
            "pbrMetallicRoughness" : {
                "baseColorFactor" : [
                    0.800000011920929,
                    0.800000011920929,
                    0.800000011920929,
                    1
                ],
                "metallicFactor" : 0,
                "roughnessFactor" : 0.4000000059604645
            }
        }
    ],
    "meshes" : [
        {
            "extras" : {
                "targetNames" : [
                    "Key 1"
                ]
            },
            "name" : "Cube.002",
            "primitives" : [
                {
                    "attributes" : {
                        "POSITION" : 0,
                        "NORMAL" : 1,
                        "TEXCOORD_0" : 2,
                        "COLOR_0" : 3,
                        "JOINTS_0" : 4,
                        "WEIGHTS_0" : 5
                    },
                    "indices" : 6,
                    "material" : 0,
                    "targets" : [
                        {
                            "POSITION" : 7,
                            "NORMAL" : 8
                        }
                    ]
                }
            ],
            "weights" : [
                0
            ]
        }
    ],
    "skins" : [
        {
            "inverseBindMatrices" : 9,
            "joints" : [
                3,
                2,
                1,
                0
            ],
            "name" : "Armature"
        }
    ],
    "accessors" : [
        {
            "bufferView" : 0,
            "componentType" : 5126,
            "count" : 132,
            "max" : [
                0.19999998807907104,
                2.1999998092651367,
                0.19999998807907104
            ],
            "min" : [
                -0.19999998807907104,
                -0.19999998807907104,
                -0.19999998807907104
            ],
            "type" : "VEC3"
        },
        {
            "bufferView" : 1,
            "componentType" : 5126,
            "count" : 132,
            "type" : "VEC3"
        },
        {
            "bufferView" : 2,
            "componentType" : 5126,
            "count" : 132,
            "type" : "VEC2"
        },
        {
            "bufferView" : 3,
            "componentType" : 5123,
            "count" : 132,
            "normalized" : true,
            "type" : "VEC4"
        },
        {
            "bufferView" : 4,
            "componentType" : 5121,
            "count" : 132,
            "type" : "VEC4"
        },
        {
            "bufferView" : 5,
            "componentType" : 5126,
            "count" : 132,
            "type" : "VEC4"
        },
        {
            "bufferView" : 6,
            "componentType" : 5123,
            "count" : 186,
            "type" : "SCALAR"
        },
        {
            "bufferView" : 7,
            "componentType" : 5126,
            "count" : 132,
            "max" : [
                0,
                0,
                0.6871100068092346
            ],
            "min" : [
                0,
                0,
                0
            ],
            "type" : "VEC3"
        },
        {
            "bufferView" : 8,
            "componentType" : 5126,
            "count" : 132,
            "type" : "VEC3"
        },
        {
            "bufferView" : 9,
            "componentType" : 5126,
            "count" : 4,
            "type" : "MAT4"
        }
    ],
    "bufferViews" : [
        {
            "buffer" : 0,
            "byteLength" : 1584,
            "byteOffset" : 0
        },
        {
            "buffer" : 0,
            "byteLength" : 1584,
            "byteOffset" : 1584
        },
        {
            "buffer" : 0,
            "byteLength" : 1056,
            "byteOffset" : 3168
        },
        {
            "buffer" : 0,
            "byteLength" : 1056,
            "byteOffset" : 4224
        },
        {
            "buffer" : 0,
            "byteLength" : 528,
            "byteOffset" : 5280
        },
        {
            "buffer" : 0,
            "byteLength" : 2112,
            "byteOffset" : 5808
        },
        {
            "buffer" : 0,
            "byteLength" : 372,
            "byteOffset" : 7920
        },
        {
            "buffer" : 0,
            "byteLength" : 1584,
            "byteOffset" : 8292
        },
        {
            "buffer" : 0,
            "byteLength" : 1584,
            "byteOffset" : 9876
        },
        {
            "buffer" : 0,
            "byteLength" : 256,
            "byteOffset" : 11460
        }
    ],
    "buffers" : [
        {
            "byteLength" : 11716,
            "uri" : "stick4.bin"
        }
    ]
}
